<svg width="101" height="18" fill="none" xmlns="http://www.w3.org/2000/svg"><path d="M1.218 16.47a6.795 6.795 0 01-1.2-4.336V5.866A6.9 6.9 0 011.2 1.488C1.996.49 3.354-.006 5.275 0c1.921.006 3.222.443 3.902 1.312a5.514 5.514 0 011.14 3.752v1.47h-3.55V4.94a8.149 8.149 0 00-.111-1.254 1.39 1.39 0 00-.403-.794 1.348 1.348 0 00-.987-.309 1.281 1.281 0 00-.744.116c-.23.112-.42.29-.542.511a4.465 4.465 0 00-.292 1.838v7.956c-.039.63.076 1.26.335 1.838.124.209.307.378.528.486.221.109.47.152.715.124.242.034.488-.008.704-.12.215-.11.39-.285.497-.498.208-.588.298-1.21.266-1.83v-1.671h3.55v1.445A5.942 5.942 0 019.23 16.63C8.474 17.549 7.17 18 5.318 18c-1.853 0-3.302-.501-4.1-1.53zM15.155.242h4.066l3.43 17.55h-3.379l-.609-3.878h-2.847l-.686 3.852H11.7L15.155.242zm3.13 11.466l-1.08-7.053-1.072 7.052h2.153zM25.285 2.883h-2.779V.243H31.7v2.64h-2.745v14.883h-3.679l.009-14.883z" fill="#111"/><path d="M38.913.242h6.973v1.822h-4.46v5.791h3.62v1.73h-3.62v6.426h4.503v1.755h-7.016V.242zM47.953.242h1.715l5.146 11.641V.243h2.093V17.79h-1.604L50.157 5.825v11.941H48.03L47.953.242zM59.678.242h6.964v1.822h-4.46v5.791h3.653v1.73h-3.619v6.426h4.477v1.755h-7.015V.242zM68.709.242h3.62a6.119 6.119 0 014.004 1.095c.858.727 1.278 1.914 1.278 3.56 0 2.228-.74 3.59-2.221 4.086l2.573 8.783h-2.436L73.17 9.543h-1.947v8.223h-2.513V.242zm3.43 7.521a3.382 3.382 0 002.316-.635c.27-.31.471-.672.592-1.061.12-.39.159-.8.111-1.203a4.775 4.775 0 00-.248-1.672 1.574 1.574 0 00-.335-.536 1.62 1.62 0 00-.523-.366 4.178 4.178 0 00-1.758-.293h-1.106v5.8l.951-.034zM80.99 16.47A7.571 7.571 0 0179.903 12V6.15c-.03-1.128.115-2.255.428-3.342A3.75 3.75 0 0181.823.794a5.173 5.173 0 012.881-.702 4.622 4.622 0 011.933.232A4.53 4.53 0 0188.29 1.33a5.74 5.74 0 011.098 3.869v.652H87.03v-.544c.016-.65-.036-1.299-.155-1.938a1.666 1.666 0 00-.652-1.028 2.627 2.627 0 00-1.475-.343 2.2 2.2 0 00-1.552.468 2.122 2.122 0 00-.66 1.237 12.062 12.062 0 00-.146 2.08v6.51c-.068.99.105 1.98.506 2.892.233.28.528.505.863.657a2.482 2.482 0 002.135-.042c.329-.165.614-.401.835-.69a6.622 6.622 0 00.524-3.05v-1.237H84.97v-1.73h4.546v8.674h-1.553l-.248-2.014a3.086 3.086 0 01-1.2 1.659 3.225 3.225 0 01-2 .572 4.09 4.09 0 01-1.961-.315 3.982 3.982 0 01-1.563-1.197zM94.73 11.582L90.847.242h2.332L95.931 8.7l2.71-8.457H101l-3.86 11.34v6.184h-2.4l-.01-6.184z" fill="#444"/></svg>