<svg width="70" height="59" fill="none" xmlns="http://www.w3.org/2000/svg"><path d="M59.743 23.806A25.423 25.423 0 0051.71 13.43a25.632 25.632 0 00-12.165-5.02 25.688 25.688 0 00-13.062 1.671 25.536 25.536 0 00-10.491 7.916 25.327 25.327 0 00-5.132 12.06 25.267 25.267 0 001.59 12.997 25.417 25.417 0 007.892 10.484 25.629 25.629 0 0012.094 5.184 113.224 113.224 0 01-1.686-6.794c1.509.973 3.098 1.819 4.749 2.529 0 0 .12 2.142.28 4.533 1.783.03 3.566-.126 5.317-.466a2.108 2.108 0 010-.754c.29-1.855 1.088-5.198 1.247-7.35a15.108 15.108 0 002.894-3.68l-.06.436c-.549 4.226-1.696 8.74-2.395 9.989a5.534 5.534 0 01-.828 1.14 25.646 25.646 0 009.918-4.727 25.467 25.467 0 007.004-8.43 25.303 25.303 0 00.867-21.341zm-1.466 3.76c-.44.426-1.347.714-1.497-.576-.15-1.29-.19-2.192-.19-2.192s-1.925-3.402-2.643-3.442c-.719-.04-5.817 3.442-7.164 4.96-1.167 1.28-1.397 1.19-1.397 3.442 0 1.696.22 8.104.1 13.004l-8.131 2.153a64.17 64.17 0 01-7.783 1.706l-.997-5.783h-.14l-2.564-13.064s-3.801-1.428-5.198-1.815a3.772 3.772 0 00-3.991.625 5.005 5.005 0 00-1.726 3.819c.21.46.371.943.479 1.438.05.476-1.197.426-1.996.426-.798 0-.918-1.428-.289-3.104a22.571 22.571 0 011.816-3.71 11.776 11.776 0 012.065-2.867s.14-.337 1.247-.238c1.108.1 7.264.427 7.264.427l.05-2.252a143.265 143.265 0 0120.193-1.33v1.816a22.576 22.576 0 018.122-1.984.912.912 0 01.768.387c.34.427 2.405 2.976 2.644 3.343.67.953 1.28 1.947 1.826 2.976a6.174 6.174 0 01-.868 1.825v.01z" fill="#FDC305"/><path d="M56.331 21.495c.47.595.878 1.121.998 1.28.67.953 1.28 1.947 1.826 2.976-.19.63-.48 1.226-.858 1.765-.44.427-1.347.714-1.497-.575-.15-1.29-.21-2.143-.21-2.143s-1.925-3.402-2.643-3.442c-.719-.04-5.817 3.442-7.164 4.96-1.167 1.28-1.397 1.19-1.397 3.442 0 1.488.17 6.596.13 11.14 1.806.198 4.46.694 5.258 1.864 0 0-.29-7.122 7.792-3.392 0 0 .28-9.711 11.434-7.221a43.584 43.584 0 00-13.669-10.654zM45.825 19.194a89.212 89.212 0 00-1.397-16.397s-.15-1.29-.868-.238a14.084 14.084 0 00-1.197 3.968 71.13 71.13 0 00-12.79.337c-.819-2.728-2.215-3.968-2.884-3.64-.669.327-.748 3.253-.748 3.253l-.33 14.046a143.275 143.275 0 0120.214-1.33z" fill="#F06351"/><path d="M45.246 46.74c.13-1.062.2-2.47.24-4.028l-8.132 2.153a64.152 64.152 0 01-7.782 1.756l1.108 4.96c0 .108 0 .218.07.327 1.509.973 3.097 1.82 4.748 2.53a42.36 42.36 0 006.864-4.098v.06a15.113 15.113 0 002.884-3.66z" fill="#E55645"/><path d="M31.927 16.09c-.05-.1.998.674 1.407.912.409.238.608.416.608.585 0 .169-.26.337-.618.337-.36 0-.918-.119-.998-.258-.08-.139.599 0 .938 0h.29a8.043 8.043 0 01-1.627-1.577zM39.41 16.198s-.998 1.27-1.088 1.33c-.09.059-.17.337.19.287.412-.061.82-.154 1.217-.278.11-.06.07-.198-.12-.178-.19.02-.678.05-.997.109l.848-1.26s.03-.119-.05-.01zM36.277 22.259a2.29 2.29 0 001.087-.992c.28-.655 0-.903-.438-.992a2.456 2.456 0 00-1.746.337c-.39.367-.34.724 0 .992.337.263.705.483 1.097.655z" fill="#000"/><path d="M35.918 23.509c-.115.225-.27.427-.46.595-.283.227-.633.36-.997.377a2.184 2.184 0 01-1.536-.437 1.993 1.993 0 01-.53-.446 1 1 0 00-.358-.248s.748 4.077 2.564 4.731c1.816.655 2.155-.753 2.205-1.13a5.56 5.56 0 00-.819-3.214c0-.298-.02-.1-.07-.228z" fill="#F06351"/><path d="M34.222 24.64a3.504 3.504 0 01-2.345-1.419.149.149 0 010-.198.138.138 0 01.1-.042.14.14 0 01.1.042 3.203 3.203 0 002.105 1.3 2.112 2.112 0 001.636-.993l.14-.188.1.218s.378.754.997.794c.619.04 1.057-.417 1.626-1.28a.144.144 0 01.24.159c-.666.972-1.294 1.438-1.886 1.398a1.551 1.551 0 01-1.117-.724 2.251 2.251 0 01-1.696.933z" fill="#000"/><path d="M36.177 37.99c2.066 0 3.741-1.665 3.741-3.719s-1.675-3.72-3.74-3.72c-2.067 0-3.742 1.666-3.742 3.72 0 2.054 1.675 3.72 3.741 3.72z" fill="#FDC305"/><path d="M41.136 31.246l-3.123 1.3 1.147-5.585-7.482 9.68 3.122-1.298-1.147 5.594 7.483-9.691zm-7.373 3.799l4.15-5.366-.808 3.967 1.995-.813-4.18 5.376.808-3.968-1.965.804zM32.366 33.587c.617 0 1.117-.498 1.117-1.111 0-.614-.5-1.111-1.117-1.111s-1.117.497-1.117 1.11c0 .614.5 1.112 1.117 1.112zM38.871 37.614c.435 0 .788-.35.788-.784a.786.786 0 00-.788-.783.786.786 0 00-.788.783c0 .433.353.784.788.784zM39.829 35.462a.348.348 0 100-.694.348.348 0 00-.35.346c0 .192.157.348.35.348z" fill="#111"/><path d="M45.775 20.99a57.14 57.14 0 00-5.078 5.167 31.744 31.744 0 01-5.298 4.86c-.22-.525-1.626-1.507-1.626-1.507s-3.133-2.133-5.188-3.81a31.736 31.736 0 01-3.133-2.975l-1.996-.109a22.57 22.57 0 0011.973 8.769c.858-.14 3.272-1.855 5.078-3.254a57.362 57.362 0 005.987-5.862 6.318 6.318 0 001.137-1.984c-1.137.377-1.856.704-1.856.704z" fill="#F06351"/><path d="M65.07 3.472l-8.44 9.364-1.217-1.974L63.544 0l1.527 3.472zM62.507 17.12l5.527-4.076-.778-3.71-5.388 4.771.639 3.016zM59.783 48.972l6.116 3.154 3.003-2.321-6.674-2.728-2.445 1.895zM1.945 5.922l3.063-3.333 9.269 8.927-1.217 2.262L1.944 5.922zM7.363 16.149l-4.69-3.105L.28 16.883l5.138 2.38 1.946-3.114zM13.878 52.126l-4.54 3.323L12.133 59l4.01-3.988-2.264-2.886z" fill="#FDC305"/><path d="M25.87 27.774s-3.8-1.428-5.197-1.815a3.771 3.771 0 00-3.991.625 5.004 5.004 0 00-1.726 3.819c.21.46.371.943.479 1.438.05.476-1.198.426-1.996.426s-.918-1.428-.29-3.104a22.571 22.571 0 011.817-3.71C9.528 28.27 0 34.777 0 34.777a45.981 45.981 0 018.171.238c5.238.526 4.989 4.632 4.989 4.632a38.754 38.754 0 015.617-1.1c2.115-.14 2.265 2.102 2.265 2.102l.529 3.83a18.221 18.221 0 012.644-2.342 6.07 6.07 0 014.37-1.29L25.87 27.775z" fill="#F06351"/></svg>