<svg width="60" height="50" fill="none" xmlns="http://www.w3.org/2000/svg"><path d="M51.208 19.05a22.293 22.293 0 00-6.886-9.125A21.672 21.672 0 0033.896 5.51a21.504 21.504 0 00-11.197 1.469 21.954 21.954 0 00-8.992 6.962 22.581 22.581 0 00-4.399 10.607 22.76 22.76 0 001.364 11.433 22.31 22.31 0 006.763 9.22 21.684 21.684 0 0010.367 4.56c-.496-1.823-1-3.839-1.446-5.976 1.294.856 2.656 1.6 4.071 2.225 0 0 .103 1.884.24 3.987 1.529.027 3.057-.11 4.558-.41a1.908 1.908 0 010-.663c.248-1.632.932-4.572 1.069-6.465a13.243 13.243 0 002.48-3.237l-.052.384c-.47 3.716-1.453 7.686-2.052 8.785a4.865 4.865 0 01-.71 1.004 21.747 21.747 0 008.501-4.158 22.278 22.278 0 006.004-7.416 22.77 22.77 0 00.743-18.77zm-1.257 3.308c-.376.375-1.154.628-1.283-.507a30.81 30.81 0 01-.162-1.928s-1.65-2.992-2.266-3.027c-.616-.035-4.986 3.027-6.14 4.362-1.001 1.126-1.198 1.047-1.198 3.028 0 1.491.188 7.127.086 11.437l-6.97 1.894a53.797 53.797 0 01-6.67 1.5l-.856-5.086h-.12l-2.197-11.49s-3.259-1.257-4.456-1.597a3.157 3.157 0 00-1.79-.235 3.189 3.189 0 00-1.63.785 4.418 4.418 0 00-1.1 1.515 4.499 4.499 0 00-.38 1.844c.18.405.318.83.41 1.265.043.419-1.026.375-1.71.375-.684 0-.787-1.256-.248-2.73.42-1.135.941-2.227 1.556-3.264a10.352 10.352 0 011.77-2.521s.12-.297 1.07-.21c.949.088 6.225.375 6.225.375l.043-1.98a119.71 119.71 0 0117.31-1.169v1.597a18.947 18.947 0 016.96-1.745.765.765 0 01.659.34c.29.375 2.06 2.617 2.266 2.94a24.51 24.51 0 011.565 2.617 5.493 5.493 0 01-.744 1.606v.009z" fill="#FDC305"/><path d="M48.284 17.018c.402.523.752.986.855 1.125a24.51 24.51 0 011.565 2.618 5.493 5.493 0 01-.735 1.553c-.377.375-1.155.628-1.283-.506-.128-1.134-.18-1.885-.18-1.885s-1.65-2.992-2.266-3.027c-.616-.035-4.986 3.027-6.14 4.362-1 1.126-1.197 1.047-1.197 3.028 0 1.308.145 5.801.11 9.797 1.549.175 3.823.61 4.508 1.64 0 0-.248-6.264 6.679-2.983 0 0 .239-8.542 9.8-6.352a37.507 37.507 0 00-11.716-9.37zM39.279 14.994A80.462 80.462 0 0038.08.572s-.128-1.134-.744-.209a12.63 12.63 0 00-1.026 3.49 59.424 59.424 0 00-10.963.296C24.647 1.75 23.449.66 22.876.948c-.573.287-.641 2.861-.641 2.861l-.282 12.354c5.74-.809 11.53-1.2 17.326-1.169z" fill="#F06351"/><path d="M38.782 39.222c.111-.934.171-2.172.205-3.542l-6.97 1.893a53.8 53.8 0 01-6.67 1.544l.95 4.363c0 .096 0 .191.06.287 1.294.856 2.655 1.6 4.07 2.225a36.127 36.127 0 005.884-3.603v.052a13.243 13.243 0 002.471-3.22z" fill="#E55645"/><path d="M27.366 12.263c-.043-.087.855.594 1.206.803.35.21.521.366.521.515 0 .148-.222.296-.53.296-.308 0-.787-.104-.855-.227-.068-.122.513 0 .804 0h.248a6.98 6.98 0 01-1.394-1.387zM33.78 12.36s-.855 1.116-.932 1.168c-.077.053-.146.297.162.253a6.81 6.81 0 001.044-.244c.094-.052.06-.175-.103-.157-.163.017-.582.044-.855.096l.727-1.108s.025-.105-.043-.009zM31.095 17.69c.396-.178.724-.485.932-.873.24-.575 0-.794-.377-.872a2.061 2.061 0 00-1.496.297c-.334.322-.29.636 0 .872.289.231.605.425.94.576z" fill="#000"/><path d="M30.787 18.79a1.785 1.785 0 01-.394.523c-.243.2-.543.316-.855.331-.47.047-.942-.09-1.317-.384a1.722 1.722 0 01-.453-.392.855.855 0 00-.308-.218s.641 3.585 2.198 4.161c1.556.576 1.847-.663 1.89-.994a4.99 4.99 0 00-.701-2.827c0-.262-.018-.087-.06-.2z" fill="#F06351"/><path d="M29.333 19.784c-.4-.059-.785-.2-1.13-.414a3.016 3.016 0 01-.88-.834.132.132 0 010-.174.119.119 0 01.132-.027.12.12 0 01.04.027c.21.303.48.56.79.756.309.196.654.327 1.014.387a1.78 1.78 0 00.804-.264c.244-.152.449-.36.598-.609l.12-.166.085.192s.325.663.856.698c.53.035.906-.366 1.393-1.125a.121.121 0 01.171-.035.128.128 0 01.034.174c-.57.855-1.108 1.265-1.616 1.23a1.309 1.309 0 01-.55-.207 1.34 1.34 0 01-.407-.43 1.946 1.946 0 01-.636.578c-.252.142-.531.225-.818.243z" fill="#000"/><path d="M31.009 31.527c1.771 0 3.207-1.465 3.207-3.272 0-1.807-1.436-3.271-3.207-3.271s-3.207 1.464-3.207 3.271 1.436 3.272 3.207 3.272z" fill="#FDC305"/><path d="M35.259 25.594l-2.677 1.143.984-4.912-6.414 8.515 2.677-1.142-.984 4.92 6.414-8.524zm-6.32 3.342l3.558-4.72-.693 3.49 1.71-.716-3.583 4.729.693-3.49-1.684.707zM27.742 27.653a.968.968 0 00.958-.977.968.968 0 00-.958-.977.968.968 0 00-.957.977c0 .54.428.977.957.977zM33.318 31.195a.683.683 0 00.676-.689c0-.38-.303-.69-.676-.69a.683.683 0 00-.675.69c0 .38.302.69.675.69zM34.14 29.302c.164 0 .298-.137.298-.305a.302.302 0 00-.299-.306c-.165 0-.3.137-.3.306 0 .168.135.305.3.305z" fill="#111"/><path d="M39.236 16.573a49.68 49.68 0 00-4.353 4.546 27.484 27.484 0 01-4.54 4.275c-.19-.463-1.395-1.326-1.395-1.326s-2.685-1.876-4.447-3.35a27.527 27.527 0 01-2.685-2.618l-1.71-.096c2.468 3.68 6.085 6.397 10.262 7.712.735-.122 2.805-1.631 4.353-2.861a49.809 49.809 0 005.13-5.156 5.597 5.597 0 00.976-1.745c-.975.331-1.591.62-1.591.62zM22.175 22.54s-3.258-1.256-4.456-1.596a3.158 3.158 0 00-1.789-.235 3.19 3.19 0 00-1.631.785 4.418 4.418 0 00-1.099 1.515 4.499 4.499 0 00-.38 1.844c.18.405.318.83.41 1.265.043.419-1.027.375-1.71.375-.685 0-.787-1.256-.249-2.73.42-1.135.942-2.227 1.557-3.264C8.168 22.977 0 28.7 0 28.7a38.402 38.402 0 017.004.21c4.49.462 4.276 4.074 4.276 4.074a32.466 32.466 0 014.815-.968c1.813-.123 1.94 1.85 1.94 1.85l.454 3.367c.688-.76 1.447-1.45 2.266-2.06a5.111 5.111 0 013.746-1.133l-2.326-11.5z" fill="#F06351"/></svg>