<svg xmlns="http://www.w3.org/2000/svg" width="78" height="81" fill="none"><path fill="#fff" d="M64.02 35.63H14.03a3.18 3.18 0 01-3.18-3.16V23a3.18 3.18 0 013.18-3.16h49.98A3.17 3.17 0 0167.2 23v9.47a3.17 3.17 0 01-3.18 3.16zM14.03 22.26c-.4 0-.74.34-.74.74v9.47c0 .4.33.74.74.74h49.98c.41 0 .75-.33.75-.74V23c0-.4-.34-.74-.75-.74H14.03z"/><path fill="#fff" d="M57.04 68.08H21A6.11 6.11 0 0114.87 62V34.42c0-.67.55-1.21 1.22-1.21.68 0 1.22.54 1.22 1.21V62A3.68 3.68 0 0021 65.66h36.04a3.68 3.68 0 003.7-3.67V34.42a1.22 1.22 0 012.44 0V62a6.11 6.11 0 01-6.14 6.1z"/><path fill="#fff" d="M39.02 68.08c-.67 0-1.22-.54-1.22-1.2V34.41c0-.67.55-1.21 1.22-1.21.68 0 1.22.54 1.22 1.21v32.45c0 .67-.54 1.21-1.22 1.21zM23.81 22.26a7.81 7.81 0 01-3.17-10.6A7.9 7.9 0 0131.3 8.5c5.82 3.13 8.96 11.86 9.09 12.23l-2.3.8c-.03-.08-2.96-8.22-7.95-10.9a5.45 5.45 0 00-7.36 2.17 5.4 5.4 0 002.2 7.33l-1.17 2.13z"/><path fill="#fff" d="M54.23 22.26l-1.16-2.14a5.38 5.38 0 00-1.03-9.92 5.42 5.42 0 00-4.14.43c-4.98 2.68-7.91 10.82-7.94 10.9l-2.3-.8c.13-.37 3.27-9.1 9.08-12.23a7.86 7.86 0 0111.29 9.1c-.6 2-1.95 3.66-3.8 4.66zm7.72 29.6H16.09c-.67 0-1.22-.55-1.22-1.21 0-.67.55-1.22 1.22-1.22h45.86a1.21 1.21 0 110 2.42z"/></svg>