<svg width="27" height="31" fill="none" xmlns="http://www.w3.org/2000/svg"><path d="M6.12 0c-1.066 0-1.066 1.583 0 1.583h6.668v1.604C5.96 3.62.563 9.414.563 16.485c0 4.01 1.75 7.63 4.512 10.069.48.422.544 1.171.107 1.636L3.646 29.74c-.747.686.362 1.752 1.034 1.003l2.006-2.037a1.164 1.164 0 011.312-.211 12.785 12.785 0 0011.105.063c.427-.211.96-.127 1.301.211l1.942 1.974c.683.633 1.664-.317 1.046-1.003l-1.451-1.477c-.448-.454-.384-1.203.106-1.636a13.467 13.467 0 003.415-4.583 13.335 13.335 0 001.194-5.57c0-7.071-5.43-12.876-12.268-13.288V1.583h6.667c1.067 0 1.067-1.583 0-1.583H6.121zM2.004 16.475c0-6.533 5.195-11.82 11.606-11.82 6.4 0 11.596 5.287 11.596 11.82 0 6.543-5.195 11.841-11.596 11.841-6.4 0-11.606-5.298-11.606-11.841zM12.799 8.38c0-1.098 1.664-1.098 1.664 0v8.633a.84.84 0 01-.25.597.858.858 0 01-.604.247.816.816 0 01-.57-.23.798.798 0 01-.24-.561V8.38zm-4.993 2.617c.308 0 .604-.12.822-.337a1.144 1.144 0 000-1.627 1.17 1.17 0 00-.822-.336c-.288.027-.555.16-.75.371a1.144 1.144 0 000 1.547c.195.212.462.344.75.372v.01zm11.596 0c.308 0 .604-.12.822-.337a1.144 1.144 0 000-1.627 1.17 1.17 0 00-.822-.336c-.288.027-.555.16-.75.371a1.144 1.144 0 000 1.547c.195.212.462.344.75.372v.01zM8.969 23.588c0 1.53-2.326 1.53-2.326 0s2.326-1.53 2.326 0zm4.64 3.44a1.176 1.176 0 00.893-.293 1.153 1.153 0 00.381-.851 1.14 1.14 0 00-.38-.852 1.167 1.167 0 00-.894-.293c-.287.027-.555.16-.75.371a1.143 1.143 0 000 1.547c.195.212.463.344.75.372zM5.491 16.645a1.139 1.139 0 01-.297.883 1.162 1.162 0 01-.86.377 1.173 1.173 0 01-.86-.377 1.148 1.148 0 01-.298-.883c.028-.285.162-.55.376-.742a1.17 1.17 0 011.564 0c.214.193.348.457.375.742zm17.388 1.15a1.173 1.173 0 00.894-.294 1.152 1.152 0 00.38-.851 1.14 1.14 0 00-.38-.852 1.164 1.164 0 00-.894-.293c-.287.027-.555.16-.749.371a1.144 1.144 0 000 1.547c.195.212.462.345.75.372zm-2.314 5.805c0 1.52-2.326 1.52-2.326-.01 0-1.531 2.326-1.531 2.326 0v.01z" fill="#fff"/></svg>