<svg xmlns="http://www.w3.org/2000/svg" xmlns:xlink="http://www.w3.org/1999/xlink"><defs><clipPath id="a"><path fill="currentColor" d="M0 0h128v24H0z"/></clipPath></defs><symbol id="footer-logo-mobile"><g fill="none"><g fill="currentColor" clip-path="url(#a)"><path d="M1.62 21.96a9.43 9.43 0 01-1.6-5.72V7.76a9.56 9.56 0 011.5-5.82C2.62.61 4.32 0 6.83 0c2.5 0 4.1.61 5.1 1.74a7.43 7.43 0 011.51 5v2.04h-4.9V6.43c.03-.7-.07-1.39-.3-2.04a1.42 1.42 0 00-1.4-.82c-.71 0-1.21.2-1.41.72a6.72 6.72 0 00-.3 2.25v10.92a4.3 4.3 0 00.4 2.15c.2.5.7.71 1.4.71s1.1-.2 1.3-.71c.23-.7.33-1.42.3-2.15v-2.45h4.91v2.05a7.92 7.92 0 01-1.5 5.1c-1 1.23-2.7 1.84-5.1 1.84-2.41-.1-4.22-.71-5.22-2.04zM19.35.3h5.7l4.21 23.3h-4.6l-.8-4.91h-3.31l-.8 4.9h-4.7L19.34.31zm4.1 15.33l-1.2-9.1-1.2 9.1h2.4zm9.32-11.44h-3.4V.3h11.9v3.78h-3.4v19.5h-5.1V4.2zM50.4.3h8.8v2.46h-5.7v7.66h4.6v2.35h-4.6v8.57h5.7v2.35h-8.9V.31h.1zm11.4 0h2.21l6.51 15.43V.3h2.6v23.28h-2l-6.6-15.93v15.93H61.8V.31zm14.33 0h8.81v2.46h-5.7v7.66h4.6v2.35h-4.6v8.57h5.7v2.35h-8.81V.31zm11.41 0h4.61a7.9 7.9 0 015.1 1.44c1.1.92 1.6 2.55 1.6 4.7 0 2.96-.9 4.8-2.8 5.4l3.21 11.65h-3.1l-3-10.93h-2.51V23.5h-3.2V.3h.1zm4.41 10.01c1.03.1 2.06-.2 2.9-.81.6-.51.9-1.53.9-3.07a6.72 6.72 0 00-.3-2.24 2.58 2.58 0 00-1.1-1.23 4.49 4.49 0 00-2.2-.4h-1.4v7.65h1.2v.1zm10.91 11.55a10.49 10.49 0 01-1.4-5.93V8.17a17 17 0 01.5-4.4c.34-1.06 1-2 1.9-2.65 1.12-.67 2.41-1 3.71-.92 2.1 0 3.6.51 4.5 1.64a7.93 7.93 0 011.41 5.1v.82h-3v-.71c0-.86-.07-1.71-.2-2.56a2.05 2.05 0 00-.8-1.32 3.05 3.05 0 00-1.9-.51 2.96 2.96 0 00-2.01.6 2.3 2.3 0 00-.8 1.64c-.13.92-.2 1.84-.2 2.76v8.68a9.43 9.43 0 00.6 3.88c.4.82 1.2 1.12 2.4 1.12a2.38 2.38 0 002.4-1.22c.53-1.3.77-2.69.7-4.09V14.4h-2.9v-2.35h5.81V23.6h-2l-.3-2.65a4.17 4.17 0 01-1.56 2.2c-.74.53-1.64.8-2.55.76a4.92 4.92 0 01-4.3-2.04zm17.13-6.44L115.09.41h3l3.5 11.23L125 .41h3l-4.9 15.01v8.17h-3.01v-8.17h-.1z"/></g></g></symbol><symbol id="htmlacademy-logo-mobile"><g fill="none"><path d="M13.643.016L13.5 0 0 1.407v24.606L13.5 34 27 26.013V1.407L13.643.016zm11.591 25L13.5 31.956 1.766 25.015V14.93l11.685 6.916.02 1.253-8.017-4.743-.011 1.225 8.046 4.809.02 1.286-8.045-4.758-.01 1.226L13.5 26.95l8.124-4.833V16.91l3.62-2.15-.01 10.256zm0-11.564l-3.22 1.88-1.482.875-7.065-4.187-.011 1.225 6.04 3.573-.053.031-.13.076-.86.492-4.986-2.948-.011 1.225 3.936 2.328-.933.61-.021.012-2.971-1.742-.011 1.225 1.947 1.135-1.988 1.186-11.618-6.872 11.638-6.958 11.8 6.834zm0-1.225L13.44 5.31 1.766 12.22V2.99L13.5 1.764 25.234 2.99v9.237z" fill="currentColor"/></g></symbol><symbol id="slider-button"><g fill="none"><rect x="1" y="1" width="38" height="38" rx="19" fill="#fff"/><rect x="1" y="1" width="38" height="38" rx="19" stroke="currentColor" stroke-width="2"/><path d="M16 11l-8 9 8 9V11zM32 20l-8-9v18l8-9z" fill="currentColor"/></g></symbol><symbol id="social-icon-tg"><g fill="none"><path clip-rule="evenodd" d="M19.46.153c.18.15.265.382.227.611l-2.626 15.757a.657.657 0 01-1.012.439l-7.878-5.253a.656.656 0 01-.149-.956l2.611-3.263-4.36 2.906a.657.657 0 01-.658.041L.363 7.81a.657.657 0 01.073-1.205L18.819.038a.657.657 0 01.642.115zM2.327 7.323L5.862 9.09l7.561-5.04a.656.656 0 01.877.956l-4.805 6.006 6.438 4.292L18.208 1.65 2.326 7.323z" fill="currentColor"/></g></symbol><symbol id="social-icon-vk"><g fill="none"><path d="M0 2.339C0 1.484.515 1.023 1.545.956l3.97.025a.52.52 0 01.533.377c.409 1.257.866 2.343 1.372 3.257.506.913 1.168 1.965 1.985 3.156.071.15.187.226.346.226.125 0 .222-.059.293-.176l.08-.277.027-4.35c0-.302-.075-.503-.226-.604-.151-.1-.431-.176-.84-.226-.32-.05-.48-.235-.48-.553 0-.067.01-.118.027-.151C9.005.57 10.072.025 11.83.025L13.322 0c.675 0 1.234.16 1.678.478.444.318.666.821.666 1.509v5.708c.125.084.24.126.347.126.266 0 .497-.15.692-.453 1.954-2.582 3.011-4.308 3.17-5.18 0-.017.019-.059.054-.126.125-.251.329-.47.613-.654.284-.184.533-.31.746-.377a.554.554 0 01.24-.05h4.13l.266.025c.355 0 .63.16.826.478.07.1.12.21.146.327.027.117.045.234.054.352.009.117.013.184.013.2v.177c-.124.687-.44 1.42-.946 2.2-.506.78-1.15 1.622-1.931 2.528-.782.905-1.27 1.5-1.466 1.785-.16.201-.24.386-.24.554 0 .134.071.285.213.452l3.89 4.627c.213.269.32.562.32.88 0 .386-.16.705-.48.956-.32.252-.701.394-1.145.428l-.453.025h-4.05a.855.855 0 00-.106.012.862.862 0 01-.107.013c-.39 0-.755-.16-1.092-.478-.125-.134-.96-1.123-2.505-2.967a1.387 1.387 0 00-.373-.327c-.07.268-.164.654-.28 1.157-.115.503-.2.863-.253 1.081l-.08.428c-.177.586-.55.938-1.119 1.056l-.373.025h-2.61c-1.475 0-2.945-.637-4.41-1.911-1.466-1.275-2.784-2.922-3.957-4.942C2.238 8.102 1.146 5.75.133 3.068A1.916 1.916 0 010 2.338zm16.013 6.513c-.373 0-.71-.096-1.013-.29-.302-.192-.453-.456-.453-.791V1.987c0-.336-.089-.575-.266-.717-.178-.143-.489-.214-.933-.214l-1.518.05c-.764 0-1.341.126-1.732.378.781.352 1.172.922 1.172 1.71V7.62a1.5 1.5 0 01-.533 1.043 1.59 1.59 0 01-1.066.415c-.532 0-.94-.243-1.225-.729C7.06 6.371 6.03 4.493 5.356 2.716l-.24-.654-3.544-.025c-.231 0-.36.013-.386.038-.027.025-.04.096-.04.213 0 .151.017.31.053.478l.56 1.409c1.491 3.638 3.112 6.505 4.862 8.6 1.75 2.096 3.468 3.144 5.155 3.144h2.665c.106 0 .186-.03.24-.088.053-.06.097-.172.133-.34l.053-.251.506-2.213c.142-.302.267-.503.373-.604a.975.975 0 01.693-.277c.426 0 .861.243 1.305.73l2.265 2.716c.142.218.293.327.453.327h4.396c.533 0 .8-.126.8-.378a.466.466 0 00-.08-.251l-3.864-4.552c-.302-.352-.453-.73-.453-1.131 0-.403.142-.788.427-1.157.23-.336.679-.893 1.345-1.673a37.63 37.63 0 001.745-2.188c.498-.679.826-1.295.986-1.848l.08-.327a.371.371 0 01-.027-.163.574.574 0 00-.026-.189h-4.183c-.267.1-.48.252-.64.453l-.16.478c-.444 1.156-1.607 2.942-3.49 5.356a1.892 1.892 0 01-1.305.503z" fill="currentColor"/></g></symbol><symbol id="social-icon-yt"><g fill="none"><path d="M15.85 8.793l-5.236-3.491a.655.655 0 00-1.014.545v6.982a.655.655 0 001.014.546l5.237-3.491a.654.654 0 000-1.091zm-4.94 2.814V7.07l3.403 2.27-3.404 2.268zm12.48-8.563a2.4 2.4 0 00-1.452-1.637C18.218-.022 12.251 0 12 0c-.25 0-6.218-.022-9.938 1.407A2.4 2.4 0 00.61 3.044C.327 4.113 0 6.076 0 9.338c0 3.262.327 5.226.61 6.295a2.4 2.4 0 001.452 1.636c3.72 1.43 9.687 1.407 9.938 1.407h.076c.753 0 6.317-.043 9.862-1.407a2.4 2.4 0 001.451-1.636c.284-1.07.611-3.033.611-6.295s-.327-5.225-.61-6.294zm-1.266 12.261a1.09 1.09 0 01-.655.742c-3.49 1.342-9.404 1.32-9.469 1.32-.066 0-5.978.022-9.47-1.32a1.09 1.09 0 01-.654-.742c-.261-1.003-.567-2.847-.567-5.967 0-3.12.306-4.963.567-5.967a1.09 1.09 0 01.655-.742C6.02 1.287 11.934 1.31 12 1.31c.066 0 5.978-.022 9.47 1.32a1.092 1.092 0 01.654.742c.262 1.004.567 2.847.567 5.967 0 3.12-.305 4.964-.567 5.968z" fill="currentColor"/></g></symbol></svg>